<svg width="32" height="32" viewBox="0 0 32 32" fill="none" xmlns="http://www.w3.org/2000/svg">
  <path d="M26 28H6C5.44772 28 5 27.5523 5 27V5C5 4.44772 5.44772 4 6 4H26C26.5523 4 27 4.44772 27 5V27C27 27.5523 26.5523 28 26 28Z" stroke="#AC242D" stroke-width="2" stroke-linecap="round" stroke-linejoin="round"/>
  <path d="M10 8H14M10 13H14M10 18H14M18 8H22M18 13H22M18 18H22" stroke="#AC242D" stroke-width="2" stroke-linecap="round"/>
  <path d="M13 28V23C13 22.4477 13.4477 22 14 22H18C18.5523 22 19 22.4477 19 23V28" stroke="#AC242D" stroke-width="2" stroke-linecap="round" stroke-linejoin="round"/>
</svg> 